<svg xmlns="http://www.w3.org/2000/svg" xmlns:xlink="http://www.w3.org/1999/xlink" width="2000" zoomAndPan="magnify" viewBox="0 0 1500 1499.999933" height="2000" preserveAspectRatio="xMidYMid meet" version="1.0"><defs><clipPath id="5450abe4c8"><path d="M 116 0.28125 L 1036 0.28125 L 1036 880 L 116 880 Z M 116 0.28125 " clip-rule="nonzero"/></clipPath><clipPath id="fc7e120fe0"><path d="M 194 328 L 1114.71875 328 L 1114.71875 1207 L 194 1207 Z M 194 328 " clip-rule="nonzero"/></clipPath><clipPath id="ce87f4d41b"><rect x="0" width="1115" y="0" height="1389"/></clipPath></defs><g transform="matrix(1, 0, 0, 1, 188, 59)"><g clip-path="url(#ce87f4d41b)"><path fill="#183172" d="M 803.769531 557.464844 C 800.789062 564.277344 797.785156 571.078125 794.78125 577.847656 C 784.367188 578.828125 772.464844 580.082031 761.210938 581.660156 C 731.671875 585.765625 694.558594 597.660156 620.714844 632.109375 C 546.882812 666.578125 484.117188 746.570312 434.273438 819.179688 C 384.433594 891.785156 335.207031 1053.613281 295.207031 1059.761719 C 255.210938 1065.925781 222.601562 1001.933594 207.214844 976.085938 C 191.832031 950.242188 153.683594 869.628906 136.453125 829.027344 C 119.226562 788.410156 68.347656 643.605469 41.277344 548.433594 C 14.199219 453.253906 3.542969 361.363281 1.082031 242.414062 C -1.382812 123.4375 64.238281 57.808594 120.039062 35.660156 C 120.773438 35.371094 121.511719 35.09375 122.300781 34.832031 C 151.171875 24.757812 201.601562 32.46875 260.652344 55.304688 C 318.835938 77.820312 385.4375 115.046875 448.03125 164.464844 C 448.03125 164.464844 340.128906 115.230469 265.054688 117.085938 C 189.984375 118.933594 137.683594 160.773438 110.613281 214.914062 C 83.535156 269.070312 77.378906 381.054688 87.226562 472.125 C 97.070312 563.191406 136.453125 703.492188 161.066406 779.800781 C 185.679688 856.09375 229.367188 925.628906 257.058594 944.089844 C 284.746094 962.542969 301.363281 934.859375 337.445312 856.910156 C 373.550781 778.980469 467.898438 690.375 515.496094 651.800781 C 559.527344 616.121094 698.71875 566.03125 803.769531 557.464844 " fill-opacity="1" fill-rule="nonzero"/><g clip-path="url(#5450abe4c8)"><path fill="#183172" d="M 116.753906 20.066406 C 156.957031 2.84375 253.765625 11.046875 346.476562 63.554688 C 439.191406 116.058594 515.488281 161.179688 607.375 135.753906 C 699.273438 110.320312 807.570312 75.855469 874.023438 111.953125 C 940.480469 148.054688 939.652344 244.863281 913.402344 343.320312 C 887.140625 441.769531 780.492188 691.191406 726.339844 769.132812 C 672.195312 847.070312 654.96875 879.070312 654.96875 879.070312 C 1010.210938 514.792969 1047.132812 221.078125 1033.59375 164.464844 C 1020.066406 107.855469 1004.472656 85.707031 976.578125 67.648438 C 948.683594 49.605469 877.300781 13.507812 778.84375 41.402344 C 680.402344 69.296875 642.65625 88.984375 616.410156 98.007812 C 590.148438 107.027344 523.28125 112.78125 487.183594 102.929688 C 451.082031 93.082031 331.707031 18.421875 266.894531 6.121094 C 170.289062 -11.511719 116.753906 20.066406 116.753906 20.066406 " fill-opacity="1" fill-rule="nonzero"/></g><path fill="#1b75bc" d="M 840.078125 722.03125 C 837.101562 728.84375 834.101562 735.644531 831.097656 742.414062 C 820.695312 743.398438 808.804688 744.648438 797.558594 746.226562 C 768.046875 750.332031 730.964844 762.226562 657.1875 796.679688 C 583.425781 831.148438 520.714844 911.148438 470.917969 983.757812 C 421.121094 1056.363281 371.941406 1218.199219 331.976562 1224.351562 C 292.015625 1230.515625 259.4375 1166.523438 244.0625 1140.667969 C 228.695312 1114.824219 190.582031 1034.210938 173.367188 993.605469 C 156.15625 952.984375 105.324219 808.175781 78.273438 713 C 51.222656 617.816406 40.578125 525.921875 38.117188 406.964844 C 35.65625 287.984375 101.214844 222.355469 156.964844 200.203125 C 157.703125 199.914062 158.4375 199.636719 159.226562 199.375 C 188.074219 189.300781 238.457031 197.011719 297.453125 219.847656 C 355.585938 242.367188 422.125 279.59375 484.664062 329.011719 C 484.664062 329.011719 376.859375 279.78125 301.851562 281.632812 C 226.851562 283.480469 174.597656 325.324219 147.546875 379.464844 C 120.496094 433.625 114.347656 545.617188 124.1875 636.6875 C 134.019531 727.761719 173.367188 868.066406 197.957031 944.375 C 222.550781 1020.671875 266.199219 1090.210938 293.863281 1108.675781 C 321.527344 1127.128906 338.125 1099.441406 374.175781 1021.488281 C 410.25 943.554688 504.511719 854.945312 552.066406 816.375 C 596.054688 780.691406 735.125 730.597656 840.078125 722.03125 " fill-opacity="1" fill-rule="nonzero"/><path fill="#1b75bc" d="M 153.6875 184.609375 C 193.851562 167.382812 290.574219 175.589844 383.203125 228.101562 C 475.828125 280.609375 552.058594 325.730469 643.863281 300.300781 C 735.675781 274.867188 843.875 240.398438 910.269531 276.5 C 976.664062 312.601562 975.835938 409.417969 949.613281 507.878906 C 923.375 606.332031 816.824219 855.761719 762.71875 933.707031 C 708.625 1011.648438 691.410156 1043.652344 691.410156 1043.652344 C 1046.335938 679.359375 1083.222656 385.628906 1069.695312 329.011719 C 1056.179688 272.402344 1040.597656 250.25 1012.734375 232.195312 C 984.863281 214.148438 913.546875 178.050781 815.175781 205.945312 C 716.820312 233.84375 679.113281 253.53125 652.886719 262.554688 C 626.652344 271.574219 559.847656 277.328125 523.777344 267.476562 C 487.710938 257.628906 368.445312 182.964844 303.6875 170.664062 C 207.171875 153.027344 153.6875 184.609375 153.6875 184.609375 " fill-opacity="1" fill-rule="nonzero"/><path fill="#0cc0df" d="M 881.917969 884.992188 C 878.9375 891.800781 875.9375 898.605469 872.929688 905.371094 C 862.515625 906.355469 850.617188 907.605469 839.359375 909.183594 C 809.820312 913.292969 772.707031 925.183594 698.863281 959.636719 C 625.03125 994.101562 562.265625 1074.097656 512.421875 1146.703125 C 462.582031 1219.308594 413.355469 1381.136719 373.355469 1387.289062 C 333.363281 1393.453125 300.75 1329.460938 285.363281 1303.609375 C 269.980469 1277.765625 231.832031 1197.15625 214.605469 1156.550781 C 197.375 1115.933594 146.496094 971.132812 119.425781 875.957031 C 92.347656 780.777344 81.695312 688.890625 79.230469 569.941406 C 76.769531 450.960938 142.386719 385.335938 198.1875 363.1875 C 198.925781 362.898438 199.664062 362.621094 200.453125 362.359375 C 229.324219 352.285156 279.753906 359.992188 338.800781 382.828125 C 396.988281 405.347656 463.589844 442.574219 526.183594 491.988281 C 526.183594 491.988281 418.277344 442.757812 343.207031 444.613281 C 268.136719 446.460938 215.832031 488.300781 188.761719 542.441406 C 161.683594 596.597656 155.53125 708.582031 165.378906 799.652344 C 175.222656 890.71875 214.605469 1031.019531 239.21875 1107.324219 C 263.832031 1183.621094 307.519531 1253.152344 335.207031 1271.617188 C 362.898438 1290.070312 379.511719 1262.386719 415.59375 1184.433594 C 451.699219 1106.503906 546.046875 1017.902344 593.648438 979.328125 C 637.675781 943.648438 776.871094 893.558594 881.917969 884.992188 " fill-opacity="1" fill-rule="nonzero"/><g clip-path="url(#fc7e120fe0)"><path fill="#0cc0df" d="M 194.90625 347.59375 C 235.105469 330.367188 331.917969 338.574219 424.628906 391.082031 C 517.339844 443.585938 593.636719 488.707031 685.527344 463.277344 C 777.421875 437.84375 885.71875 403.378906 952.175781 439.480469 C 1018.628906 475.582031 1017.800781 572.390625 991.554688 670.847656 C 965.292969 769.296875 858.644531 1018.714844 804.492188 1096.65625 C 750.347656 1174.59375 733.117188 1206.597656 733.117188 1206.597656 C 1088.363281 842.320312 1125.28125 548.605469 1111.742188 491.988281 C 1098.214844 435.382812 1082.621094 413.230469 1054.730469 395.175781 C 1026.832031 377.132812 955.453125 341.035156 856.996094 368.925781 C 758.550781 396.824219 720.808594 416.511719 694.558594 425.535156 C 668.296875 434.554688 601.433594 440.308594 565.332031 430.457031 C 529.230469 420.609375 409.859375 345.949219 345.042969 333.648438 C 248.441406 316.011719 194.90625 347.59375 194.90625 347.59375 " fill-opacity="1" fill-rule="nonzero"/></g></g></g></svg>